<?xml version="1.0"?>
<svg xmlns:rdf="http://www.w3.org/1999/02/22-rdf-syntax-ns#" xmlns="http://www.w3.org/2000/svg" xmlns:dc="http://purl.org/dc/elements/1.1/" xmlns:cc="http://web.resource.org/cc/" xmlns:xlink="http://www.w3.org/1999/xlink" xmlns:sodipodi="http://inkscape.sourceforge.net/DTD/sodipodi-0.dtd" xmlns:svg="http://www.w3.org/2000/svg" id="Layer_1" style="enable-background:new 0 0 134.744 128.186" space="preserve" viewBox="0 0 134.744 128.186" sodipodi:version="0.32" version="1.1" sodipodi:docname="cesto.svg" sodipodi:docbase="F:\openclip\svg da inviare">
  <sodipodi:namedview id="base" bordercolor="#666666" borderopacity="1.0" pagecolor="#ffffff"/>
  <g id="g3">
    <path id="path5" fill="#FFD500" d="m121.35 119.2c0 9.178-9.696 8.178-15.906 8.178h-82.67c-7.863 0-9.524-5.594-10.273-12.168-1.126-9.869-2.252-19.74-3.376-29.611-0.523-4.59-1.048-9.18-1.571-13.77-0.197-1.735 0.073-4.906-0.74-6.49 0-1.435-4.133-3.031-5.097-3.762-2.344-1.778-0.878-3.976 0.028-6.268 1.088-2.753 3.793-11.105 7.648-11.105h104.52c3.077 0 8.637-1.143 11.564 0.18 4.584 2.072 7.552 10.749 8.81 15.181 0.792 2.732-5.934 3.79-6.317 6.833-2.163 17.248-4.327 34.495-6.49 51.743-0.03 0.36-0.07 0.71-0.12 1.06"/>
    <path id="path7" fill="#f90" d="m9.202 43.4c-4.496 0-7.484 9.631-8.681 12.859-2.546 6.868 5.038 5.123 5.579 9.869 0.945 8.298 1.889 16.594 2.833 24.893 1.016 8.92 2.031 17.842 3.045 26.761 0.854 7.502 5.135 10.404 12.193 10.404h83.515c6.889 0 13.431-0.574 14.476-8.927 2.115-16.848 4.229-33.696 6.344-50.543 0.464-3.71 0.724-3.5 4.207-5.799 5.248-3.462-1.011-12.501-3.738-16.239-3.163-4.335-7.129-3.278-11.931-3.278h-106.83c-0.342 0.009-0.679 0.009-1.018 0.009m4.558 75.8c-1.891-16.65-3.782-33.303-5.673-49.952-0.243-2.147 0.025-4.518-1.958-5.849-3.717-2.495-5.623-2.572-3.859-7.203 1.328-3.487 2.902-7.656 5.572-10.37 2.098-2.131 8.756-0.802 11.355-0.802h105.2c3.146 0 5.587 6.275 6.66 8.523 1.312 2.746 3.793 6.033 0.644 8.086-1.5 0.979-4.179 1.825-4.438 3.88-0.948 7.568-1.899 15.137-2.852 22.705-1.185 9.437-2.369 18.872-3.555 28.308-0.763 6.071-3.094 10.03-9.747 10.03h-82.25c-5.693 0-15.1 1.16-15.1-7.36"/>
    <path id="path9" fill="#FFB907" d="m112.4 63.772h-89.843c-8.721 0-6.791 8.896-6.151 14.338 0.989 8.44 1.979 16.88 2.969 25.319 0.501 4.284 0.045 13.424 3.375 16.754-2.842-6.927-2.218-16.956-3.093-24.274-0.585-4.896-1.17-9.793-1.756-14.689-0.346-2.89-1.426-6.479 0.22-9.157 2.931-4.769 11.832-3.204 16.526-3.204h61.694c4.732 0 9.918-0.607 14.624 0 10.512 0 5.607 15.388 4.845 21.179-1.188 8.994-2.374 17.987-3.563 26.979-0.131 0.999-0.24 2.31-0.579 3.138 2.344-2.373 2.258-7.075 2.666-10.25 0.784-6.073 1.567-12.148 2.352-18.223 0.8-6.19 7.47-27.905-4.28-27.905"/>
    <path id="path11" fill="#f90" d="m111.59 110.66c0 10.254-21.849 6.697-27.879 6.697h-54.148c-6.956 0-6.827-7.551-7.395-12.533-1.375-12.08-2.752-24.159-4.128-36.241-1.557 6.283 1.333 15.384 2.05 21.67 0.906 7.953 1.813 15.903 2.719 23.856 0.911 7.998 8.126 6.911 14.042 6.911h58.933c6.146 0 14.766 1.601 15.812-6.75 0.948-7.557 1.895-15.114 2.842-22.672 0.616-4.912 1.231-9.822 1.847-14.735 0.321-2.568 1.279-5.755 0.582-8.339-1.76 14.032-3.52 28.077-5.28 42.126"/>
    <path id="path13" fill="#FFB907" d="m124.75 50.803c2.619 4.774-10.045 3.971-12.319 3.971h-87.448c-3.563 0-11.156 1.191-14.41-0.798-4.066-2.484 2.239-6.016 4.441-6.016h94.29c3.65-0.001 13.85-1.502 15.45 2.843"/>
    <g id="g15">
      <defs id="defs17">
        <path id="XMLID_1_" d="m120.5 46.259h-105.8c-1.471 0-1.871 1.7-0.202 1.7h104.9c1.19 0 2.99-1.7 1.1-1.7"/>
      </defs>
      <use id="use20" xlink:href="#XMLID_1_" fill="#FF9900"/>
      <clipPath id="XMLID_5_">
        <use id="use23" xlink:href="#XMLID_1_"/>
      </clipPath>
      <path id="path25" style="clip-path:url(#XMLID_5_)" fill="#f90" d="m13.291 47.959h106.99c1.296 0 1.708-1.7 0.719-1.7h-100.32c-1.934 0-8.169-1.376-7.39 1.7"/>
    </g>
    <path id="path27" fill="#f90" d="m123.84 54.773h-108.85c-0.392 0-6.697-0.315-4.841 1.452 0.439 0.418 1.462 0.248 1.986 0.248h111.17c1.16 0.001 2.19-1.7 0.53-1.7"/>
    <path id="path29" fill="#f90" d="m119.3 54.773h-104.31 104.31"/>
    <path id="path31" fill="#f90" d="m33.562 59.742h-13.279c-2.479 0-12.115-1.616-14.047 0.316-3.966 3.966 11.903 3.215 12.554 3.215h9.503c3.383 0 2.249-2.051 5.269-3.531m63.519 0h-59.389c2.068 1.011 1.902 3.532 4.076 3.532h50.781c2.664-0.001 2.065-2.322 4.532-3.532m31.229 0h-27.101c2.94 1.439 1.888 3.532 5.163 3.532h19.764c2.27-0.001 4.62-3.532 2.18-3.532"/>
    <path id="path33" fill="#BF8A05" d="m40.536 68.858h-9.817c1.959 4.659 7.857 4.659 9.817 0m0.146-5.585c-1.625 0-9.888-0.852-10.267 0.499 1.545 0 10.507 0.187 10.267-0.499m-5.054-4.015c-0.689 0.16-1.377 0.323-2.066 0.483h4.13c-0.688-0.16-1.375-0.323-2.064-0.483"/>
    <path id="path35" fill="#988904" d="m40.839 63.772c-4.12 0-11.744-2.271-10.555 3.664 0.498 2.481 3.88 1.422 6.009 1.422 3.88 0 5.958-0.023 4.546-5.086"/>
    <path id="path37" fill="#8CB211" d="m37.692 59.742c-3.324 0-5.771-0.256-7.118 3.532h10.107c-0.526-1.482-1.555-2.831-2.989-3.532"/>
    <path id="path39" fill="#BF8A05" d="m104.05 68.858h-9.816c1.961 4.656 7.866 4.661 9.816 0m0.15-5.585c-1.616 0-9.901-0.844-10.265 0.499 1.547 0 10.505 0.187 10.265-0.499m-5.053-4.015c-0.688 0.16-1.378 0.323-2.066 0.483h4.131c-0.69-0.16-1.375-0.323-2.063-0.483"/>
    <path id="path41" fill="#988904" d="m104.36 63.772c-4.118 0-11.744-2.271-10.554 3.664 0.497 2.481 3.88 1.422 6.01 1.422 3.874 0 5.954-0.023 4.544-5.086"/>
    <path id="path43" fill="#8CB211" d="m101.21 59.742c-3.323 0-5.771-0.256-7.118 3.532h10.107c-0.53-1.482-1.55-2.831-2.99-3.532"/>
    <path id="path45" fill="#77AAE8" d="m101.12 64.059c-5.647 2.808-7.616-4.625-9.444-8.299-3.476-6.985-6.948-13.968-10.423-20.952-2.042-4.099-18.718-29.033-10.171-33.279 4.6-3.763 17.407 26.453 18.692 29.037 3.473 6.984 6.947 13.969 10.421 20.954 1.82 3.675 6.56 9.732 0.92 12.539"/>
    <radialGradient id="XMLID_6_" gradientUnits="userSpaceOnUse" cy="466.84" cx="-246.18" gradientTransform="matrix(84.892 8.4807 8.4807 -84.892 17009 41685)" r="1.6287">
      <stop id="stop48" stop-color="#8BBBFF" offset="0"/>
      <stop id="stop50" stop-color="#0D56AC" offset="1"/>
    </radialGradient>
    <path id="path52" fill="url(#XMLID_6_)" d="m70.566 0.899c-9.161 4.47 7.166 28.665 9.354 33.063 3.527 7.093 7.057 14.185 10.585 21.278 1.858 3.738 3.815 11.216 9.295 10.124 7.896-1.575 4.074-8.277 1.938-12.575-3.345-6.722-6.689-13.444-10.032-20.167-3.412-6.86-6.824-13.72-10.236-20.581-1.709-3.427-6.03-15.138-10.906-11.142m25.36 61.587c-4.649-9.348-9.3-18.695-13.949-28.042-3.011-6.054-6.022-12.108-9.033-18.163-1.528-3.069-3.798-6.159-3.386-9.729 0.324-2.816 2.48-6.797 5.261-3.427 2.329 2.824 2.738 6.682 4.405 9.968 3.613 7.124 7.292 14.214 10.971 21.305 3.498 6.738 7.004 13.471 10.516 20.201 0.752 1.44 1.504 2.882 2.258 4.322 1.81 3.459-5.283 7.094-7.044 3.565m5.554 2.302"/>
    <path id="path54" fill="#7ED8FC" d="m74.978 6.221c-0.187 1.857 2.01 4.949 2.77 6.521 2.034 4.219 4.154 8.396 6.267 12.576 0.878 1.737 7.712 18.643 9.001 18.771-1.44-0.145-4.151-6.232-4.789-7.29-2.959-4.919-5.859-9.876-8.812-14.8-2.425-4.043-4.799-8.177-7.56-12.006-3.356-4.654 3.814-10.698 3.123-3.772"/>
    <path id="path56" fill="#77AAE8" d="m34.415 64.059c5.647 2.808 7.616-4.625 9.445-8.299 3.475-6.985 6.948-13.968 10.422-20.952 2.037-4.098 18.713-29.033 10.167-33.278-4.599-3.763-17.407 26.452-18.692 29.036-3.474 6.984-6.949 13.969-10.421 20.954-1.83 3.675-6.57 9.732-0.921 12.539"/>
    <radialGradient id="XMLID_7_" gradientUnits="userSpaceOnUse" cy="468.26" cx="-231.95" gradientTransform="matrix(-84.893 8.4808 -8.4808 -84.893 -15654 41685)" r="1.6294">
      <stop id="stop59" stop-color="#8BBBFF" offset="0"/>
      <stop id="stop61" stop-color="#0D56AC" offset="1"/>
    </radialGradient>
    <path id="path63" fill="url(#XMLID_7_)" d="m62.227 0.147c-3.968 0.853-6.886 9.324-8.582 12.733-3.474 6.984-6.948 13.968-10.421 20.952-3.268 6.569-6.536 13.141-9.804 19.71-0.755 1.521-1.511 3.039-2.266 4.558-2.238 4.5 3.785 8.589 7.75 7.027 3.293-1.297 5.194-8.022 6.578-10.804 3.575-7.187 7.15-14.375 10.727-21.561 3.095-6.221 6.189-12.444 9.284-18.665 1.845-3.712 4.267-15.548-3.266-13.95m-27.45 63.184c-6.542-3.18 6.922-22.669 9.414-27.566 2.987-5.869 5.999-11.729 9.117-17.533 1.239-2.306 2.522-4.589 3.734-6.91 1.165-2.228 1.381-4.678 2.654-6.751 2.689-4.373 5.75-2.578 6.275 1.981 0.412 3.571-1.858 6.661-3.386 9.729-3.21 6.458-6.423 12.915-9.636 19.372-3.272 6.58-6.547 13.161-9.82 19.741-1.569 3.161-3.42 10.386-8.352 7.937m-0.726 1.457z"/>
    <path id="path65" fill="#7ED8FC" d="m60.553 6.221c0.186 1.857-2.01 4.949-2.769 6.521-2.036 4.219-4.155 8.396-6.268 12.576-0.877 1.737-7.712 18.643-9 18.771 1.439-0.145 4.15-6.232 4.789-7.29 2.959-4.919 5.859-9.876 8.812-14.8 2.425-4.043 4.799-8.177 7.56-12.006 3.354-4.654-3.816-10.698-3.124-3.772"/>
    <path id="path67" fill="#68A0F2" d="m39.297 59.671c0 3.416-5.292 3.416-5.292 0s5.292-3.416 5.292 0"/>
    <path id="path69" fill="#C3C2C4" d="m38.482 59.671c0 2.37-3.664 2.37-3.664 0 0-2.369 3.664-2.369 3.664 0"/>
    <path id="path71" fill="#E5E5E5" d="m38.203 59.671c0-0.705-2.427-1.134-3.052 0.177 0.512-1.074 3.052-3.084 3.052-0.177"/>
    <path id="path73" fill="#68A0F2" d="m101.65 59.671c0 3.416-5.292 3.416-5.292 0s5.292-3.416 5.292 0"/>
    <path id="path75" fill="#C3C2C4" d="m100.84 59.671c0 2.37-3.664 2.37-3.664 0-0.002-2.369 3.664-2.369 3.664 0"/>
    <path id="path77" fill="#E5E5E5" d="m100.56 59.671c0-0.705-2.427-1.134-3.051 0.177 0.508-1.074 3.051-3.084 3.051-0.177"/>
  </g>
  <metadata>
    <rdf:RDF>
      <cc:Work>
        <dc:format>image/svg+xml</dc:format>
        <dc:type rdf:resource="http://purl.org/dc/dcmitype/StillImage"/>
        <cc:license rdf:resource="http://creativecommons.org/licenses/publicdomain/"/>
        <dc:publisher>
          <cc:Agent rdf:about="http://openclipart.org/">
            <dc:title>Openclipart</dc:title>
          </cc:Agent>
        </dc:publisher>
        <dc:title>Architetto -- Cesto</dc:title>
        <dc:date>2009-04-29T20:47:08</dc:date>
        <dc:description>Shopping basket icon by Francesco 'Architetto' Rollandin.</dc:description>
        <dc:source>http://openclipart.org/detail/25492/architetto----cesto-by-anonymous-25492</dc:source>
        <dc:creator>
          <cc:Agent>
            <dc:title>Anonymous</dc:title>
          </cc:Agent>
        </dc:creator>
        <dc:subject>
          <rdf:Bag>
            <rdf:li>basket</rdf:li>
            <rdf:li>clip art</rdf:li>
            <rdf:li>clipart</rdf:li>
            <rdf:li>icon</rdf:li>
            <rdf:li>image</rdf:li>
            <rdf:li>media</rdf:li>
            <rdf:li>png</rdf:li>
            <rdf:li>public domain</rdf:li>
            <rdf:li>shopping</rdf:li>
            <rdf:li>svg</rdf:li>
            <rdf:li>symbol</rdf:li>
            <rdf:li>yellow</rdf:li>
          </rdf:Bag>
        </dc:subject>
      </cc:Work>
      <cc:License rdf:about="http://creativecommons.org/licenses/publicdomain/">
        <cc:permits rdf:resource="http://creativecommons.org/ns#Reproduction"/>
        <cc:permits rdf:resource="http://creativecommons.org/ns#Distribution"/>
        <cc:permits rdf:resource="http://creativecommons.org/ns#DerivativeWorks"/>
      </cc:License>
    </rdf:RDF>
  </metadata>
</svg>
